<svg xmlns="http://www.w3.org/2000/svg" width="200" height="307" viewBox="0 0 200 307">
    <g fill="none" fill-rule="evenodd">
        <path fill="#F1D0A5" d="M38 62v72.296c0 34.146 27.345 62.449 61.53 62.702 34.458.256 62.47-27.567 62.47-61.924V62H38z"/>
        <path fill="#F1B986" d="M148.126 62v73.073c0 31.898-24.561 58.16-56.126 61.552 2.279.245 4.592.375 6.937.375C133.766 197 162 169.274 162 135.074V62h-13.874z"/>
        <path fill="#1E1E1E" d="M100.23 0c22.87 0 45.59 6.723 62.651 22.471 17.165 15.844 22.223 39.733 20.926 63.471-.772 14.134-2.721 28.085-10.202 41.753-4.12 6.675-8.13 11.993-12.17 17.284.083-5.053-.357-11.051-.307-14.602.101-7.355-.152-14.714-.76-22.044-.094-1.142-.252-2.398-1.104-3.16-.637-.571-1.527-.736-2.37-.87-19.096-3.065-38.985-2.857-57.014-9.878-5.402-2.103-10.54-4.825-15.665-7.539-5.307-2.812-16.54-11.586-22.27-10.28-4.727 1.078-9.196 7.792-12.041 11.351-7.474 9.35-11.393 21.302-10.91 33.28l.392 9.671c.17 4.202 1.117 11.418.169 16.092-15.2-16.21-23.242-27.411-25.079-49.062-.969-11.422-.919-38.868 4.648-49.185 4.735-8.775 9.949-18.743 17.208-25.608C53.464 6.945 76.488 0 99.704 0h.527z"/>
        <path fill="#1E1E1E" d="M40.933 143c3.293 7.433 18.757 34.274 30.013 28.438 4.803-2.49 3.99-10.199 8.13-13.687 2.222-1.87 5.347-2.078 8.242-2.2l27.232-1.144c3.537-.15 7.166-.286 10.527.831 4.345 1.443 7.922 5.042 9.354 9.41.725 2.213 1.001 4.727 2.63 6.384 3.462 3.524 9.461-4.506 11.692-6.831 3.83-3.993 6.786-8.8 10.867-12.533 1.277 3.585-.902 7.397-2.991 10.574-5.58 8.487-11.325 17.155-19.454 23.215-5.982 4.46-13.029 7.314-20.249 9.154-17.496 4.459-36.883 2.879-52.36-6.455-15.478-9.333-26.31-26.926-25.526-45.051"/>
        <path fill="#BF213E" d="M199 300.813v-26.024c0-22.944-15.536-42.943-37.684-48.508L124.375 217h-49.75l-36.941 9.281C15.537 231.846 0 251.846 0 274.79v26.024C0 304.23 2.756 307 6.156 307h186.687c3.401 0 6.157-2.77 6.157-6.187"/>
        <path fill="#8D1C31" d="M168 228c8.112 8.858 12.939 20.502 12.939 33.038V306h12.771c3.474 0 6.29-2.747 6.29-6.136v-25.809c0-20.504-12.894-38.632-32-46.055"/>
        <path fill="#56BFBC" d="M162.307 306H37.693C27.369 306 19 297.606 19 287.25v-5c0-3.451 2.79-6.25 6.231-6.25h149.538c3.44 0 6.231 2.798 6.231 6.25v5c0 10.356-8.37 18.75-18.693 18.75"/>
        <path fill="#33A6A6" d="M173.889 276h-14.667c3.375 0 6.111 2.798 6.111 6.25v5c0 10.355-8.207 18.75-18.333 18.75h14.667c10.125 0 18.333-8.394 18.333-18.75v-5c0-3.452-2.736-6.25-6.111-6.25"/>
        <path fill="#56BFBC" d="M171 276H29v-80.6c0-6.849 5.577-12.4 12.456-12.4h117.088c6.88 0 12.456 5.551 12.456 12.4V276z"/>
        <path fill="#33A6A6" d="M160.412 184v76.232c0 3.43-2.789 6.21-6.229 6.21H29V277h142v-80.734c0-6.225-4.597-11.365-10.588-12.266z"/>
        <path fill="#F4FBFF" d="M99.5 217c7.456 0 13.5 6.044 13.5 13.5S106.956 244 99.5 244 86 237.956 86 230.5 92.044 217 99.5 217"/>
        <path fill="#1E1E1E" d="M72 134.5c0 2.486-2.015 4.5-4.5 4.5s-4.5-2.014-4.5-4.5 2.015-4.5 4.5-4.5 4.5 2.014 4.5 4.5M136 134.5c0 2.486-2.015 4.5-4.5 4.5s-4.5-2.014-4.5-4.5 2.015-4.5 4.5-4.5 4.5 2.014 4.5 4.5"/>
        <path fill="#F1B986" d="M96 153h9s-4.5-13.5-9 0"/>
    </g>
</svg>
